<svg width="43" height="43" viewBox="0 0 43 43" fill="none" xmlns="http://www.w3.org/2000/svg">
<rect x="0.5" y="0.5" width="42" height="42" rx="21" stroke="black" stroke-opacity="0.47"/>
<mask id="mask0_450_6994" style="mask-type:alpha" maskUnits="userSpaceOnUse" x="10" y="9" width="24" height="25">
<rect x="10" y="9.47314" width="24" height="24" fill="#D9D9D9"/>
</mask>
<g mask="url(#mask0_450_6994)">
<path d="M29.6 30.4731L23.3 24.1731C22.8 24.5731 22.225 24.8898 21.575 25.1231C20.925 25.3565 20.2333 25.4731 19.5 25.4731C17.6833 25.4731 16.1458 24.844 14.8875 23.5856C13.6292 22.3273 13 20.7898 13 18.9731C13 17.1565 13.6292 15.619 14.8875 14.3606C16.1458 13.1023 17.6833 12.4731 19.5 12.4731C21.3167 12.4731 22.8542 13.1023 24.1125 14.3606C25.3708 15.619 26 17.1565 26 18.9731C26 19.7065 25.8833 20.3981 25.65 21.0481C25.4167 21.6981 25.1 22.2731 24.7 22.7731L31 29.0731L29.6 30.4731ZM19.5 23.4731C20.75 23.4731 21.8125 23.0356 22.6875 22.1606C23.5625 21.2856 24 20.2231 24 18.9731C24 17.7231 23.5625 16.6606 22.6875 15.7856C21.8125 14.9106 20.75 14.4731 19.5 14.4731C18.25 14.4731 17.1875 14.9106 16.3125 15.7856C15.4375 16.6606 15 17.7231 15 18.9731C15 20.2231 15.4375 21.2856 16.3125 22.1606C17.1875 23.0356 18.25 23.4731 19.5 23.4731Z" fill="black" fill-opacity="0.35"/>
</g>
</svg>
